<svg xmlns="http://www.w3.org/2000/svg" version="1.1" xmlns:xlink="http://www.w3.org/1999/xlink" xmlns:svgjs="http://svgjs.com/svgjs" width="1440" height="560" preserveAspectRatio="none" viewBox="0 0 1440 560"><g mask="url(&quot;#SvgjsMask1063&quot;)" fill="none">

<rect width="1440" height="560" x="0" y="0" fill="rgba(255, 255, 255, 1)"></rect>


<path d="M -207.6653455335916,347 C -135.67,320.6 8.33,218 152.3346544664084,215 C 296.33,212 368.33,325.8 512.3346544664084,332 C 656.33,338.2 728.33,242.6 872.3346544664084,246 C 1016.33,249.4 1088.33,362.4 1232.3346544664084,349 C 1376.33,335.6 1550.8,158 1592.3346544664084,179 C 1633.87,200 1470.47,399 1440,454" stroke="rgba(139, 129, 85, 0)" stroke-width="2"></path><path d="M -440.357622669104,531 C -368.36,475.2 -224.36,267 -80.35762266910402,252 C 63.64,237 135.64,486 279.642377330896,456 C 423.64,426 495.64,87 639.642377330896,102 C 783.64,117 855.64,497 999.642377330896,531 C 1143.64,565 1271.57,291.6 1359.642377330896,272 C 1447.71,252.4 1423.93,400.8 1440,433" stroke="rgba(139, 129, 85, 1)" stroke-width="2"></path>

<path d="M -646.8720944363308,318 C -574.87,277.8 -430.87,109 -286.8720944363308,117 C -142.87,125 -70.87,351.2 73.12790556366917,358 C 217.13,364.8 289.13,148.2 433.1279055636692,151 C 577.13,153.8 649.13,356 793.1279055636692,372 C 937.13,388 1023.75,221.2 1153.1279055636692,231 C 1282.5,240.8 1382.63,383 1440,421" stroke="rgba(139, 129, 85, 0)" stroke-width="2"></path><path d="M -12.552143706635263,369 C 59.45,302.8 203.45,26.4 347.44785629336474,38 C 491.45,49.6 563.45,398.6 707.4478562933648,427 C 851.45,455.4 923.45,174.8 1067.4478562933648,180 C 1211.45,185.2 1283.45,463.8 1427.4478562933648,453 C 1571.45,442.2 1784.94,153.6 1787.4478562933648,126 C 1789.96,98.4 1509.49,277.2 1440,315" stroke="rgba(139, 129, 85, 1)" stroke-width="2"></path></g><defs><mask id="SvgjsMask1063"><rect width="1440" height="560" fill="#ffffff"></rect></mask></defs></svg>